<svg version="1.2" xmlns="http://www.w3.org/2000/svg" viewBox="0 0 3500 2500" width="600" height="429">
	<title>background_line_3_s</title>
	<defs>
		<clipPath clipPathUnits="userSpaceOnUse" id="cp1">
			<path d="m3500 2500h-3500v-2500h3500z"/>
		</clipPath>
	</defs>
	<style>
		.s0 { fill: none;stroke: #0522a5;stroke-miterlimit:10;stroke-width: 5 } 
	</style>
	<g id="_Artboards_">
	</g>
	<g id="321353356351 1">
		<g id="&lt;Group&gt;">
			<g id="&lt;Clip Group&gt;" clip-path="url(#cp1)" style="opacity: .1">
				<path id="&lt;Path&gt;" class="s0" d="m436.7 635.3c-15 9.3-30.1 20.6-39.8 32.4-18 22-17.9 53.1-24.2 80.8-7.4 32-26 62.9-55.4 77.3-29.5 14.5-70 7.6-87.5-20.2-15.2-24.2-9.6-56.6 4.1-81.8 13.7-25.1 34.4-45.7 50.8-69.2 28.9-41.4 53.7-85.9 77.4-130.8 18.8-35.5 43.2-71.2 80.4-86.3 40.8-16.6 94.9 0.6 111.6 41.4 4.5 10.9 6.3 22.9 7.3 34.7 1.2 15.1 1.1 30.9-4.8 44.9-7.7 18.4-24.6 31.5-42.4 40.5-17.9 9.1-37.2 14.9-55 23.9-7 3.4-14.7 7.7-22.5 12.4z"/>
				<path id="&lt;Path&gt;" class="s0" d="m448.6 754.1c8.9-18.6 19.4-36.2 32.4-52.2 39.5-48.8 102.3-43.9 152.9-78 36.5-24.6 65.3-64.2 67.1-108.2 2.2-56.9-38.6-126.3-73.9-168.4-38.1-45.3-86.9-83.9-144.2-98.7-57.3-14.8-123.7-2.3-164.2 41-70.6 75.5-18 170.9-53.5 252.5-22.6 52.1-66.6 99.5-100.5 145.8-36 49.1-73.9 106.5-61.5 166.1 9.9 47.2 49.1 82.1 87.6 111.2 36.6 27.7 115.3 77.6 160.2 39.2 9.8-8.4 16.3-19.9 21.9-31.5 21.4-44 32.7-92 46.5-139 8-27.1 17-54.4 29.2-79.8z"/>
				<path id="&lt;Path&gt;" class="s0" d="m719.5 700.9c20.7-6.6 42.5-11.6 65.9-16.4 39.9-8.2 81.2-17.1 114.3-41 51.1-37.1 72.6-110.1 49.8-169-24.3-62.6-87.4-99.8-145.7-133-42.2-24.1-86.7-50.5-116.4-90-30.1-39.9-45.3-88.8-77.6-128.1-47-57.4-120.3-93.7-194.5-91.3-74.1 2.3-146.8 45.3-180.5 111.4-27 53.1-27.8 113.7-33.3 171.7-5.2 54.5-17.7 109.2-31 162.2-18.2 72.7-50.1 141.7-92.9 203.1-40.8 58.6-105.7 103.5-140.4 164.9-17.1 30.2-21 70.9 0.9 97.7 8.9 11 21.2 18.7 33.3 26.1q79.7 49.3 159.4 98.6c41.7 25.8 84.9 52.1 133.5 59.3 118.7 17.4 161-67.3 202.7-161.9 34.4-78 83.4-150.6 148.5-205.7 32.8-29.9 66.7-46.7 104-58.6z"/>
				<path id="&lt;Path&gt;" class="s0" d="m4219.5 700.9c20.7-6.6 42.5-11.6 65.9-16.4 39.9-8.2 81.2-17.1 114.3-41 51.1-37.1 72.6-110.1 49.8-169-24.3-62.6-87.4-99.8-145.7-133-42.2-24.1-86.7-50.5-116.4-90-30.1-39.9-45.3-88.8-77.6-128.1-47-57.4-120.3-93.7-194.5-91.3-74.1 2.3-146.8 45.3-180.5 111.4-27 53.1-27.8 113.7-33.3 171.7-5.2 54.5-17.7 109.2-31 162.2-18.2 72.7-50.1 141.7-92.9 203.1-40.8 58.6-105.7 103.5-140.4 164.9-17.1 30.2-21 70.9 0.9 97.7 8.9 11 21.2 18.7 33.3 26.1q79.7 49.3 159.4 98.6c41.7 25.8 84.9 52.1 133.5 59.3 118.7 17.4 161-67.3 202.7-161.9 34.4-78 83.4-150.6 148.5-205.7 32.8-29.9 66.7-46.7 104-58.6z"/>
				<path id="&lt;Path&gt;" class="s0" d="m271.4 1385.6c-17.4-36.9-21.6-79.1-40.9-114.9-41-75.9-135.2-102.2-219.4-121.2-84.2-18.9-178.3-44.8-219.7-120.6-46.6-85-2.6-192.4 59.2-267.1 61.8-74.7 142.2-136.4 183.8-224 43-90.8 38-196.3 28.4-296.3-9.6-100.1-22.5-203.2 6.9-299.3 29.5-96.1 115.1-183.5 215.5-178.5 46.6 2.3 89.9 23.6 131.6 44.5q106.2 53.3 212.5 106.6c63.8 32 129.6 65.6 174.5 121.1 40.4 50.1 60 113.2 87.7 171.3 27.2 56.8 61 109.6 103.2 154.8 48.4 51.9 83 108.6 84.1 182 1 66.1-28.7 135.5-86.1 168.3-59.8 34.1-137.3 35.7-201.4 61.3-69.9 28-119.5 67.3-166.1 127.7-73.3 95-127 210.6-161.4 325.4-16.7 55.6-24.7 121.5-52.7 172.6-36.6 66.8-109 51.6-139.7-13.7z"/>
				<path id="&lt;Path&gt;" class="s0" d="m271.4 3885.6c-17.4-36.9-21.6-79.1-40.9-114.9-41-75.9-135.2-102.2-219.4-121.2-84.2-18.9-178.3-44.8-219.7-120.6-46.6-85-2.6-192.4 59.2-267.1 61.8-74.7 142.2-136.4 183.8-224 43-90.8 38-196.3 28.4-296.3-9.6-100.1-22.5-203.2 6.9-299.3 29.5-96.1 115.1-183.5 215.5-178.5 46.6 2.3 89.9 23.6 131.6 44.5q106.2 53.3 212.5 106.6c63.8 32 129.6 65.6 174.5 121.1 40.4 50.1 60 113.2 87.7 171.3 27.2 56.8 61 109.6 103.2 154.8 48.4 51.9 83 108.6 84.1 182 1 66.1-28.7 135.5-86.1 168.3-59.8 34.1-137.3 35.7-201.4 61.3-69.9 28-119.5 67.3-166.1 127.7-73.3 95-127 210.6-161.4 325.4-16.7 55.6-24.7 121.5-52.7 172.6-36.6 66.8-109 51.6-139.7-13.7z"/>
				<path id="&lt;Path&gt;" class="s0" d="m3771.4 1385.6c-17.4-36.9-21.6-79.1-40.9-114.9-41-75.9-135.2-102.2-219.4-121.2-84.2-18.9-178.3-44.8-219.7-120.6-46.6-85-2.6-192.4 59.2-267.1 61.8-74.7 142.2-136.4 183.8-224 43-90.8 38-196.3 28.4-296.3-9.6-100.1-22.5-203.2 6.9-299.3 29.5-96.1 115.1-183.5 215.5-178.5 46.6 2.3 89.9 23.6 131.6 44.5q106.2 53.3 212.5 106.6c63.8 32 129.6 65.6 174.5 121.1 40.4 50.1 60 113.2 87.7 171.3 27.2 56.8 61 109.6 103.2 154.8 48.4 51.9 83 108.6 84.1 182 1 66.1-28.7 135.5-86.1 168.3-59.8 34.1-137.3 35.7-201.4 61.3-69.9 28-119.5 67.3-166.1 127.7-73.3 95-127 210.6-161.4 325.4-16.7 55.6-24.7 121.5-52.7 172.6-36.6 66.8-109 51.6-139.7-13.7z"/>
				<path id="&lt;Path&gt;" class="s0" d="m2022 1002c17.1-1.1 34.7 2.2 51.3-2 27.6-6.9 46.1-31.8 67.7-50.2 25-21.3 58.4-34.9 90.7-28.9 32.2 6 60.6 35.8 58 68.5-2.3 28.5-26.2 51.2-52.2 63.1-26 12-54.9 16.1-82 25.1-25.5 8.5-49.5 21.2-75.4 28.1-25.9 6.9-55.4 7.2-77.6-7.8-38.8-26.5-31.1-92.6 19.5-95.9z"/>
				<path id="&lt;Path&gt;" class="s0" d="m2185.6 1136.2c52-27.3 105.6-28.9 159.2-50.1 34.7-13.7 67-37.3 83.2-70.9 24.9-51.5 7.4-113.8-21.3-163.2-33.9-58.1-114.6-29.1-165.7-13.4q-121.7 37.4-243.4 74.8c-58.2 17.9-122.9 41.1-148.6 96.4-20.3 43.7-9.8 95.1 3.7 141.5 12.8 44.1 46.1 131.1 105 127.2 12.8-0.9 25-6.2 36.4-12.2 43.4-22.5 81.2-54.3 120.3-83.6 22.6-17 46.2-33.4 71.2-46.5z"/>
				<path id="&lt;Path&gt;" class="s0" d="m2416.3 1097.2c32.4-17.9 62.2-39.3 84.5-70 58.2-80.5 39.5-191.4-38.9-250.9-60.4-45.8-141.1-52.5-210.2-24.6-77 31-153.1 64.4-232 90.3-76.3 25-151.9 34.1-228.9 53.8-8 2.1-15.9 4.3-23.5 7.3-33.6 13.6-59.1 43.8-71 78.1-11.8 34.2-10.9 72.1-1.7 107.1 9.5 36.4 34.4 73.3 48.7 109.3 18 45.6 36.9 92.6 71.5 127.4 27.3 27.3 83.8 61.2 124.9 55.1 40.4-6 89.4-57.8 122.5-81.5 76.5-54.6 156.9-99.2 238.4-144.3 36.9-20.3 78.1-36.4 115.7-57.1z"/>
				<path id="&lt;Path&gt;" class="s0" d="m2303.6 1223.7c-68.3 29.7-127.9 72.1-193.4 118.3-79.2 55.8-158.3 111.9-237.4 167.8-24 17-52.9 34.8-80.9 25.9-26.7-8.5-40.7-38.9-42.1-66.9-1.4-28 6.4-55.7 7.9-83.7 3.4-61.6-23.4-120.7-53.8-174.4-30.5-53.6-65.7-105.8-82-165.3-16.3-59.5-9.7-130 34.8-172.9 32.7-31.5 80.1-42.9 125.5-45.7 45.4-2.8 91.2 1.7 136.4-4 129.6-16.5 220.3-106.5 305.8-195.7 39.2-40.9 93.9-66.4 150.4-70.3 82.7-5.6 164.8 35.6 218.3 98.9 53.5 63.3 80.1 146.5 84.6 229.3 3.1 56.5-3.9 114.5-27.7 166-23.7 51.4-65.5 95.8-118.5 115.8-33.5 12.6-69.7 15.2-105 20.8-45.2 7.3-85.4 19.8-122.9 36.1z"/>
				<path id="&lt;Path&gt;" class="s0" d="m1702.3 1514.3c-14.9-55.9-18.8-115.3-28.7-172.7-21-122.2-97.9-202.6-165.7-300.2-40.9-59-54.7-145.2-8.4-200.1 42.5-50.4 116.8-56.4 182.7-57 138.8-1.3 274-9.1 360.3-132.7 46.7-67 65.9-149 103-221.6 42.9-83.9 98.7-100.1 188.7-85.6 98.6 15.9 194.9 50.9 276.5 108.4 81.7 57.5 148.1 138.3 181.9 232.2 29.7 82.3 33.8 171.5 30.7 259-2.6 69.9-10 141.2-38.5 205.2-28.5 64-81.1 120.4-148.7 138.4-44.2 11.9-90.9 6.8-136.6 6.6-171.2-0.8-332.4 61-437.2 197.5-38.9 50.6-78.1 103.9-133.8 135.3-55.6 31.4-133.3 34.2-177.6-11.8-11.9-12.4-20.7-27.4-27.9-42.9-8.8-18.7-15.4-38.1-20.7-58z"/>
				<path id="&lt;Path&gt;" class="s0" d="m622.3 1045.2c23-57.7 62.5-113.5 116.6-146.7 44.4-27.4 104.4-46.5 155.1-58.1 54.6-12.4 101-41.2 148-72.6 35.8-23.8 70.3-50 108.8-69 66.1-32.5 145-39 198.8 18.6 35.7 38.1 57.5 88.9 60.6 141 4.2 71.8 0.1 137.9 36.6 203.1 32.6 58.3 82.8 104.7 110.7 166 50.1 110.3 82.7 249 82.7 370.7 3.5 45.3 4.4 91.8-8.7 135.3-13.1 43.5-42.1 84.2-84.1 101.7-44.7 18.6-96.3 8.4-141.3-9.6-45-18-87.1-43.5-133.8-56.5-111.4-31-228.5 13.4-335.5 57.5-106.9 44.2-223.4 89.5-335.3 60.2-156.9-41-254.5-237.7-175.1-381.9 27-48.9 70.9-90.6 94.4-139.9 31.7-66.5 45.9-148.3 67.5-218.8 10.4-33.9 20.9-68.1 34-101z"/>
				<path id="&lt;Path&gt;" class="s0" d="m745.9 1809.9c67.9-16.8 129.4-52.5 191-85.6 93-50 188.8-97.3 296.9-71.5 39.7 9.4 77 27.1 116.3 37.9 39.3 10.7 83.1 14 119.4-4.5 35.3-18.1 58.5-54.7 67.3-93.3 8.8-38.6 4.7-79.1-3.7-117.7-15.2-70.7-41.6-142.6-86.5-200.1-44.9-57.5-82.1-111.3-100.8-183.9-7.9-30.7-12.5-62.4-23.7-92.1-54.6-144.6-210-149.6-333.7-98.1-36.4 15.2-70.5 35.5-106.9 50.5-30.7 12.6-63.5 19.7-92.4 36.3-100.4 57.7-142 178.7-175.7 289.4-23.6 77.5-43.6 157.4-71.8 233.4-17.2 46.4-54 93.4-59.9 143.3-16.5 138.5 161.6 181.3 264.2 156z"/>
				<path id="&lt;Path&gt;" class="s0" d="m804.3 1131.7c-13.7 11.3-26.7 23.4-39 36.1-87 90.4-104.9 227.8-140.6 344.8-10.4 33.9-20.8 68.7-19.1 104.1 1.7 35.5 18.1 72.3 49.4 88.9 31 16.5 69.8 9.9 100.9-6.3 31.2-16.2 56.9-40.8 84.7-62.2 92.3-70.8 211.1-106 327-97.1 42.7 3.3 85.2 12.4 128 9.8 42.8-2.7 87.7-19.6 110.2-56.1 36.1-58.4-2.5-126.4-47.4-166.3-49.8-44.4-83.1-74.3-106.2-140.3-18.3-52.3-37.3-110.1-84.5-139.1-31.8-19.5-71.2-22.1-108.4-19.5-93 6.5-183 44.1-255 103.2z"/>
				<path id="&lt;Path&gt;" class="s0" d="m734.4 1560.9c13.5 12.5 34.8 12.8 52.1 6.3 17.2-6.6 31.5-18.8 46.4-29.7 43.5-31.8 94.4-53.6 147.4-63.5 53.5-10 107.1 8.2 158.9-5.3 35.6-9.2 68.4-40.1 66.9-76.8-0.9-20.4-11.8-38.8-22.4-56.3q-27.3-45-54.6-89.9c-13.5-22.2-27.8-45.3-50-58.7-42-25.4-96-8.2-140.6 12.2-83 37.9-132.5 83-167.3 165.8-18 43-84.2 152-36.8 195.9z"/>
				<path id="&lt;Path&gt;" class="s0" d="m951.4 1420.5c31 7.1 66 1.8 89.6-19.5 23.5-21.3 31.6-60.1 13.4-86.1-16.8-24-50.2-31.3-78.8-25.4-24.1 5.1-61.1 14.3-76.6 34.5-32.6 42.3 10.4 86.8 52.4 96.5z"/>
				<path id="&lt;Path&gt;" class="s0" d="m2013.8 508.3c-12.4 31.3-27.2 61.4-46.3 89.1-47.1 67.9-120.8 115.8-200.9 135.1-109.6 26.3-232.1-8.5-333.2-51.6-72.8-31.1-144-67.7-204.2-119-84.8-72.4-130.1-176.9-168.3-279-39-104.6-56.4-216.8-65-327.6-3.5-45.4-4.3-91.8 8.7-135.3 13.1-43.5 42.1-84.2 84.1-101.7 44.7-18.6 96.3-8.5 141.3 9.6 45 18 87.1 43.5 133.8 56.5 111.5 31 228.5-13.5 335.5-57.6 107-44.1 223.4-89.4 335.3-60.1 156.9 41 254.6 237.7 175.1 381.9-26.9 48.8-70.8 90.5-94.4 139.9-31.7 66.5-45.9 148.3-67.5 218.8-10.3 33.8-20.9 68-34 101z"/>
				<path id="&lt;Path&gt;" class="s0" d="m1890.3-256.5c-68 16.9-129.4 52.5-191.1 85.7-92.9 49.9-188.7 97.3-296.9 71.5-39.7-9.5-76.9-27.1-116.3-37.9-39.3-10.8-83.1-14-119.4 4.5-35.2 18-58.4 54.7-67.2 93.3-8.8 38.6-4.8 79 3.6 117.7 29 134.4 107.7 249.3 205.8 343.3 27.9 26.7 57.4 49.1 86.8 73.5 70.6 58.5 161.6 90.7 249.9 106.3 82 14.6 196.8-3.9 254.5-69.5 62.7-71.4 95.5-166.2 122.7-255.6 23.6-77.5 43.6-157.4 71.8-233.4 17.3-46.5 54-93.5 59.9-143.3 16.6-138.5-161.5-181.3-264.1-156.1z"/>
				<path id="&lt;Path&gt;" class="s0" d="m2013.8 3008.3c-12.4 31.3-27.2 61.4-46.3 89.1-47.1 67.9-120.8 115.8-200.9 135.1-109.6 26.3-232.1-8.5-333.2-51.6-72.8-31.1-144-67.7-204.2-119-84.8-72.4-130.1-176.9-168.3-279-39-104.6-56.4-216.8-65-327.6-3.5-45.4-4.3-91.8 8.7-135.3 13.1-43.5 42.1-84.2 84.1-101.7 44.7-18.6 96.3-8.5 141.3 9.6 45 18 87.1 43.5 133.8 56.5 111.5 31 228.5-13.5 335.5-57.6 107-44.1 223.4-89.4 335.3-60.1 156.9 41 254.6 237.7 175.1 381.9-26.9 48.8-70.8 90.5-94.4 139.9-31.7 66.5-45.9 148.3-67.5 218.8-10.3 33.8-20.9 68-34 101z"/>
				<path id="&lt;Path&gt;" class="s0" d="m1890.3 2243.5c-68 16.9-129.4 52.5-191.1 85.7-92.9 49.9-188.7 97.3-296.9 71.5-39.7-9.5-76.9-27.1-116.3-37.9-39.3-10.8-83.1-14-119.4 4.5-35.2 18-58.4 54.7-67.2 93.3-8.8 38.6-4.8 79 3.6 117.7 29 134.4 107.7 249.3 205.8 343.3 27.9 26.7 57.4 49.1 86.8 73.5 70.6 58.5 161.6 90.7 249.9 106.3 82 14.6 196.8-3.9 254.5-69.5 62.7-71.4 95.5-166.2 122.7-255.6 23.6-77.5 43.6-157.4 71.8-233.4 17.3-46.5 54-93.5 59.9-143.3 16.6-138.5-161.5-181.3-264.1-156.1z"/>
				<path id="&lt;Path&gt;" class="s0" d="m1842.5 79.2c-9.4-17.8-31.3-26-51.4-25.5-20.2 0.4-39.4 7.8-58.7 13.5-73.4 22-153.2 21.9-226.5-0.1-28.1-8.5-56.3-20.2-85.6-18.5-29.4 1.7-60.4 22.6-60.9 52-0.5 24.6 20.2 44.7 42.3 55.7 68.8 34.3 94.8 53.8 138.3 117.7 28.6 41.9 56.9 69.7 109.8 52.2 57.1-18.8 225.7-183.8 192.7-247z"/>
				<path id="&lt;Path&gt;" class="s0" d="m1653.9 135.1c-24.9-5.7-53.1-1.4-72 15.7-18.9 17.1-25.4 48.3-10.8 69.2 13.5 19.3 40.4 25.2 63.4 20.4 19.3-4 49.1-11.5 61.6-27.7 26.2-34-8.4-69.8-42.2-77.6z"/>
				<path id="&lt;Path&gt;" class="s0" d="m1908.2-37c30.2 25 41.3 67.4 38 106.5-3.4 39-19.1 75.8-34.6 111.8-30.6 71-58.3 181-118.7 233.1-56.6 48.7-145.5 35.1-213.1 21.1-104.8-21.8-184.4-86.4-250.6-167.9-36-44.2-84-104.2-97.5-160.4-8.7-36.3 0.7-79.1 31.1-100.8 22.4-16 51.5-18 79-19.5 108.5-5.9 220.2-4.7 327.8-20.4 73-10.6 173.4-58.3 238.6-3.5z"/>
				<path id="&lt;Path&gt;" class="s0" d="m1908.2 2463c30.2 25 41.3 67.4 38 106.5-3.4 39-19.1 75.8-34.6 111.8q-25.6 59.5-51.2 119c-18 41.9-38.2 86.3-77.1 110.2-46.2 28.4-105.7 19.7-157.7 4.2-128.9-38.3-246.8-112.7-336.7-212.6-25-27.8-48.5-58.6-57.2-94.9-8.7-36.3 0.7-79.1 31.1-100.8 22.4-16 51.5-18 79-19.5 108.5-5.9 220.2-4.7 327.8-20.4 73-10.6 173.4-58.3 238.6-3.5z"/>
				<path id="&lt;Path&gt;" class="s0" d="m3860.1 1909.8c2.3 29.3 2.9 59.4-5.4 87.6-11.9 40.5-41 73.4-69.3 104.9-86.8 96.7-175 194.5-283.5 266-79.2 52.2-211.8 80.2-295.5 23-29.2-19.9-51.1-48.6-72.4-76.7-41.4-54.4-76.3-119.8-126.3-166.8-39-36.6-89-59.5-130.3-93.7-23.4-19.3-43.8-42.1-60.4-67.4-42.6-64.9-56.6-167.7-32.8-241.4 16.9-52.4 52.9-85.9 62.8-141.5 9.7-54.2 7.2-110.7-7.7-163.8-7.7-27.4-18.6-53.8-25.1-81.4-12.5-53-7.6-112.1 23.1-157.1 29.3-42.9 78.9-68.7 129.8-79.1 50.9-10.4 103.5-7 155.2-1.5 62.7 6.6 125.2 16.1 187.5 25.6 29.5 4.5 59.1 8.9 88 15.9 65.4 15.8 139.1 45 194.8 83.1 77.6 53.1 123.9 204.2 161.1 287.7 53.4 119.5 96 245.4 106.4 376.6z"/>
				<path id="&lt;Path&gt;" class="s0" d="m3624.6 2091.3c-47.3 106.6-149 176.1-269.2 160.8-59.3-7.5-116.2-40.3-147.8-91.2-15.8-25.4-24.8-54.1-38.6-80.4-14-27-24.9-33.3-51.4-44.6-51.8-22.3-109.5-39.2-151.7-78.2-77-71.2-63.2-168.7-13.6-248.3q6.4-10.2 12.7-20.4c33.3-53.3 67.8-112 61-174.4-5.6-51.7-39.4-99.9-32.3-151.4 5.6-40.2 36.3-73.8 72.9-91.3 36.5-17.6 78.3-21.2 118.8-20.2 78.7 2 157.6 20.9 226 59.9 38.4 21.9 76.7 51.5 108.2 82.6 39.7 39.1 67.8 88.6 90 139.8 36.8 84.9 58.8 180.9 63.7 273.3 5.2 96.8-9.2 195.1-48.7 284z"/>
				<path id="&lt;Path&gt;" class="s0" d="m3554.9 1876.4c-0.1 13.8-0.9 27.6-3.1 41.3-9.5 58.4-52.7 137.3-117.3 146.4-52.5 8.9-98.4-32.3-146-56.5-58.9-29.9-131.1-36.5-178.8-82.4-28.3-27.2-42.2-70.5-34.9-109.1 9.8-52.7 42.5-49.8 76-82.1 30.6-29.5 27.5-78.7 20.3-120.6-7.2-41.9-15-89.2 10.2-123.5 14.5-19.6 37.7-31.1 61.4-36.7 82.2-19.3 168.7 28.2 219.3 95.7 58.8 78.7 84.8 180.3 90.9 276.3 1 17 2.1 34.1 2 51.2z"/>
				<path id="&lt;Path&gt;" class="s0" d="m360.1 1909.8c2.3 29.3 2.9 59.4-5.4 87.6-11.9 40.5-41 73.4-69.3 104.9-86.8 96.7-175 194.5-283.5 266-79.2 52.2-211.8 80.2-295.5 23-29.2-19.9-51.1-48.6-72.4-76.7-41.4-54.4-76.3-119.8-126.3-166.8-39-36.6-89-59.5-130.3-93.7-23.4-19.3-43.8-42.1-60.4-67.4-42.6-64.9-56.6-167.7-32.8-241.4 16.9-52.4 52.9-85.9 62.8-141.5 9.7-54.2 7.2-110.7-7.7-163.8-7.7-27.4-18.6-53.8-25.1-81.4-12.5-53-7.6-112.1 23.1-157.1 29.3-42.9 78.9-68.7 129.8-79.1 50.9-10.4 103.5-7 155.2-1.5 62.7 6.6 125.2 16.1 187.5 25.6 29.5 4.5 59.1 8.9 88 15.9 65.4 15.8 139.1 45 194.8 83.1 77.6 53.1 123.9 204.2 161.1 287.7 53.4 119.5 96 245.4 106.4 376.6z"/>
				<path id="&lt;Path&gt;" class="s0" d="m124.6 2091.3c-47.3 106.6-149 176.1-269.2 160.8-59.3-7.5-116.2-40.3-147.8-91.2-15.8-25.4-24.8-54.1-38.6-80.4-14-27-24.9-33.3-51.4-44.6-51.8-22.3-109.5-39.2-151.7-78.2-77-71.2-63.2-168.7-13.6-248.3q6.4-10.2 12.7-20.4c33.3-53.3 67.8-112 61-174.4-5.6-51.7-39.4-99.9-32.3-151.4 5.6-40.2 36.3-73.8 72.9-91.3 36.5-17.6 78.3-21.2 118.8-20.2 78.7 2 157.6 20.9 226 59.9 38.4 21.9 76.7 51.5 108.2 82.6 39.7 39.1 67.8 88.6 90 139.8 36.8 84.9 58.8 180.9 63.7 273.3 5.2 96.8-9.2 195.1-48.7 284z"/>
				<path id="&lt;Path&gt;" class="s0" d="m54.9 1876.4c-0.1 13.8-0.9 27.6-3.1 41.3-9.5 58.4-52.7 137.3-117.3 146.4-52.5 8.9-98.4-32.3-146-56.5-58.9-29.9-131.1-36.5-178.8-82.4-28.3-27.2-42.2-70.5-34.9-109.1 9.8-52.7 42.5-49.8 76-82.1 30.6-29.5 27.5-78.7 20.3-120.6-7.2-41.9-15-89.2 10.2-123.5 14.5-19.6 37.7-31.1 61.4-36.7 82.2-19.3 168.7 28.2 219.3 95.7 58.8 78.7 84.8 180.3 90.9 276.3 1 17 2.1 34.1 2 51.2z"/>
				<path id="&lt;Path&gt;" class="s0" d="m3433.1 1727.8c0 9.9-0.1 19.7 0.1 29.4 0.6 35.9 11.4 71.2-1.5 106.6-11.7 32.5-40.2 59.4-74.3 64.9-34 5.5-71.7-13.6-83.6-45.9-10.3-28.1-0.9-59.4 10.4-87.1 11.4-27.7 25-56 23.1-85.9-1.5-24.3-13.3-48.1-9.1-72.2 2.7-15.5 13.1-30.2 28-35.5 27-9.6 80.1 25.8 92.5 49.2 12.5 23.6 14.1 50.2 14.4 76.5z"/>
				<path id="&lt;Path&gt;" class="s0" d="m947.8 1910.7c79.5-25.1 157.7-63.5 241.1-61 87.7 2.7 167.6 50.4 253.8 67.2 42.4 8.3 86.6 9.2 126.8 24.9 70.5 27.4 119.4 102.5 116 178-0.9 18.6-4.8 37.7-15.5 52.9-11.5 16.5-29.7 26.9-47.3 36.4-37 20.1-75.9 39.2-117.8 42.9-66.4 5.9-129.1-27.2-190.2-53.9-57-24.8-117.2-44.9-179.3-46-62.1-1.2-126.7 18.5-169.5 63.5-55 57.8-74.6 154.3-149.7 181.3-56.4 20.2-117.1-9.8-169.4-38.9q-60.6-33.8-121.1-67.6c-30.2-16.8-61.5-34.6-81.2-63-18.4-26.7-24.6-59.9-27.1-92.2-4-50.6 4-105.2 38.9-144.9 19.4-22.2 46.9-36.3 75.6-43.2 39.9-9.5 81.6-5.4 121.8-2.4 33.5 2.5 67.1 2.9 100.7 1.1 65.6-3.5 130.7-15.3 193.4-35.1z"/>
				<path id="&lt;Path&gt;" class="s0" d="m1572.9 2105.9c-10 36.5-56.1 51.3-93.2 43.7-37-7.6-68.8-30.5-103.5-45.5-54.9-23.8-116.3-27.6-176.2-27.4-57.9 0.2-116.5 4-171.5 22-39 12.7-88.5 36.1-115.4 68.3-27.8 33.5-32.1 76.5-71 103.7-26.6 18.7-60.3 25.5-92.8 23.2-32.4-2.2-63.8-12.9-93.2-26.9-46.8-22.1-93.4-58.3-101.1-109.5-4.4-28.7 4.9-58.8 23.1-81.4 18.3-22.6 45-37.7 73.4-43.7 39.5-8.2 80.2 0.6 120.4 4.9 96.7 10.3 186.3-13.1 279.8-33.6 91.6-20.2 185-32.5 278.7-36.9 57.5-2.7 117.1 2.8 168.1 31.7 38.1 21.5 88.5 55.6 74.4 107.4z"/>
				<path id="&lt;Path&gt;" class="s0" d="m795 2189.2c14.5-10.6 16.2-33.1 7.2-48.7-19.6-34.1-98.5-54.9-106.9-1.1-7.2 46.6 66.5 73.8 99.7 49.8z"/>
				<path id="&lt;Path&gt;" class="s0" d="m2440.7 1843.4c4.2-17.5-9.2-35.7-26.2-41.7-37-13.2-110.5 22.3-81.9 68.6 24.7 40.1 98.5 12.9 108.1-26.9z"/>
				<path id="&lt;Path&gt;" class="s0" d="m1851.7 1737.2c-36.1 7.8-73.8 8.6-105 30.2-26.6 18.5-46.7 46.3-57 76.9-21.6 64.2-8 144.9 46.2 187.9 22.7 17.9 48.2 32.2 75.4 42.1 27.9 10.2 49.9 8.6 79.1 7.8 62.7-1.8 127.5-6.5 187.9 14.1 68.1 23.3 121.5 75.8 182.9 113.3 80.6 49.4 180 72.6 271.6 49.2 91.5-23.5 171.6-98.8 187.1-192 7.4-44.7 0.4-90.4-1.4-135.7-2.7-67.7 6.3-135.9 26.6-200.6 24.8-79.4 66.8-162.6 40.3-241.5-19.2-57.4-72.4-98.3-129.9-117.3-54.6-18.2-109.4-16.5-166.1-12.6-55.8 3.8-112.1 12.9-163.1 36.8-69.2 32.4-126.9 88.2-179.8 142.4-37.4 38.2-72.4 79.1-114 112.7-52.5 42.3-114.9 72.1-180.8 86.3z"/>
				<path id="&lt;Path&gt;" class="s0" d="m2655.4 1662.2c-4.6 49.5-23.2 96.4-35.3 144.6-19 75.4-23.2 156.5-62.5 223.6-26.5 45.3-68.4 72.3-122 64.8-23.6-3.3-46.2-11.8-68.4-20.5q-39.3-15.6-78-32.8c-62.9-28.1-131.7-34.1-200.1-37.1-29.4-1.3-58.9-1.4-87.8-7-33.6-6.5-70.7-15.3-90.4-45.1-19.9-30.2-25-71-9.6-104.2 21.4-46.3 72.7-70.8 122.2-83 49.4-12.1 101.6-15.9 147.7-37.6 90.1-42.6 124-141.4 202.8-196.9 41.2-29.1 85.4-46.5 137.3-44.2 39.9 1.8 85.8 16.9 110.8 49.5 27 35.1 37.4 82.3 33.3 125.9z"/>
				<path id="&lt;Path&gt;" class="s0" d="m2558.3 1785.4c2.1 69.4-50.4 129.6-110.7 156.8-27.2 12.3-56.6 19.9-85.9 25.5-32.4 6.1-65.7 10.2-98.2 4.4-32.4-5.8-64.1-23-81-51.3-23.4-39.2-10.4-95.8 27.7-121 21.9-14.5 43.8-15.1 68.3-17.6 43.4-4.4 48.6-54.5 66.3-84.8 10.2-17.5 24.2-33.4 42.4-42.2 78.5-38.1 166.7 52.7 170.9 126.7q0.1 1.8 0.2 3.5z"/>
				<path id="&lt;Path&gt;" class="s0" d="m2800.2 533.2c-11-18.7-22.8-37-34.9-54.9-13.9-20.6-28.5-41.2-48.1-56.6-20.1-15.9-44.4-25.5-68.3-34.9-93.3-36.7-195.1-65.4-284.7-109.3-44-21.6-99.5-58.3-116.3-106.4-20.2-58.4 2.2-120.5 29.7-172.5 27.7-52.2 71.9-95.1 119.9-128.5 36.1-25 80.9-32.8 123.5-43.3 59-14.5 115.8-38.8 164.2-76.8 38.4-30.1 84.7-56.6 133.6-64.2 27.3-4.3 55.9-5.9 82 3 64.5 22.1 100.3 73.7 136.7 126.9 37 54.2 84.7 101.2 139.5 137.2 42.8 28.1 89.5 49.5 131.8 78.2 43.3 29.5 81.5 70.3 114.1 111.2 26.1 32.7 48.4 69.4 58.6 110 6.5 25.8 7.9 52.7 8.3 79.3 0.9 66.3-5.6 135.7-40.5 192.1-34 54.9-89.4 90.8-133.3 136.7-46.8 48.8-76.9 118.7-90.6 184.4-11.3 54.5-14.9 115.5-52.7 159.7-32.5 38-85 54.5-134.8 52.8-52.2-1.9-106.5-24.6-133.2-69.5-25.6-42.9-20.1-91.6-18.2-139.1 2-49.3-8.1-106.6-19-155.2-12.8-56.8-37.5-110-67.3-160.3z"/>
				<path id="&lt;Path&gt;" class="s0" d="m2847.8 381.9c-35.9-34.1-81-54.5-122-81.5-44-28.9-90-55.5-140.3-71.9-50.1-16.3-105.5-19.1-147.4-53.3-34.3-28.1-49.2-75.1-37.8-118.1 12.1-45.5 50.6-81.6 95.2-96.8 24.6-8.4 50.8-11 76-17.7 62.3-16.8 114.8-58 172.9-86.3 54.7-26.7 116.4-40 170.9-8.8 13.1 7.4 26.3 15 37.8 24.8 41.6 35.7 72.1 86.6 109.2 127.1 47.7 52.3 110.5 87.7 169.7 126.3 59.3 38.6 117.9 83.4 150.3 146.3 22.6 43.8 30.3 98.7 6.1 141.6-16.8 30.1-46.5 50.3-73.2 72-40.4 32.9-89.5 73.1-116.3 117.7-26.5 44.2-50.3 90.9-63.2 141.1-9.6 37.3-9.5 83-39.5 111.1-19.3 18.2-41.6 15.8-65.5 6.6-61.4-23.6-53.7-96.6-56.9-149.4-5.5-89.1-22.3-179.6-67.4-256.6-15.8-27-35.6-52.4-58.6-74.2z"/>
				<path id="&lt;Path&gt;" class="s0" d="m2916.9-17.5c22.9 19.1 39.7 48.5 58.9 71.1 25.1 29.4 52.2 57.4 82.9 81 44.6 34.3 96.2 59.2 137.8 97 41.6 37.7 73 94.5 59.3 149-5.6 22.2-18.2 42-30.8 61.2q-20.5 31.2-42 61.8c-14.5 20.7-32.2 43-57.3 46.1-14.5 1.8-29-3.4-41.5-10.8-33.2-19.9-54.2-54.6-73.2-88.3-40.6-72.3-79.8-148.5-144.5-200.3-54.2-43.5-121.3-65.5-187.4-83.6-25-6.9-63.4-9.1-82.5-28-19.3-19.1-29.7-54.9-13.7-78.5 10.1-14.9 27.8-22.3 44.6-28.6 34.2-13 69-22.7 101.9-38.4 55.4-26.3 124.7-55.3 181.1-15.6q3.2 2.3 6.4 4.9z"/>
				<path id="&lt;Path&gt;" class="s0" d="m2800.2 3033.2c-11-18.7-22.8-37-34.9-54.9-13.9-20.6-28.5-41.2-48.1-56.6-20.1-15.9-44.4-25.5-68.3-34.9-93.3-36.7-195.1-65.4-284.7-109.3-44-21.6-99.5-58.3-116.3-106.4-20.2-58.4 2.2-120.5 29.7-172.5 27.7-52.2 71.9-95.1 119.9-128.5 36.1-25 80.9-32.8 123.5-43.3 59-14.5 115.8-38.8 164.2-76.8 38.4-30.1 84.7-56.6 133.6-64.2 27.3-4.3 55.9-5.9 82 3 64.5 22.1 100.3 73.7 136.7 126.9 37 54.2 84.7 101.2 139.5 137.2 42.8 28.1 89.5 49.5 131.8 78.2 43.3 29.5 81.5 70.3 114.1 111.2 26.1 32.7 48.4 69.4 58.6 110 6.5 25.8 7.9 52.7 8.3 79.3 0.9 66.3-5.6 135.7-40.5 192.1-34 54.9-89.4 90.8-133.3 136.7-46.8 48.8-76.9 118.7-90.6 184.4-11.3 54.5-14.9 115.5-52.7 159.7-32.5 38-85 54.5-134.8 52.8-52.2-1.9-106.5-24.6-133.2-69.5-25.6-42.9-20.1-91.6-18.2-139.1 2-49.3-8.1-106.6-19-155.2-12.8-56.8-37.5-110-67.3-160.3z"/>
				<path id="&lt;Path&gt;" class="s0" d="m2847.8 2881.9c-35.9-34.1-81-54.5-122-81.5-44-28.9-90-55.5-140.3-71.9-50.1-16.3-105.5-19.1-147.4-53.3-34.3-28.1-49.2-75.1-37.8-118.1 12.1-45.5 50.6-81.6 95.2-96.8 24.6-8.4 50.8-11 76-17.7 62.3-16.8 114.8-58 172.9-86.3 54.7-26.7 116.4-40 170.9-8.8 13.1 7.4 26.3 15 37.8 24.8 41.6 35.7 72.1 86.6 109.2 127.1 47.7 52.3 110.5 87.7 169.7 126.3 59.3 38.6 117.9 83.4 150.3 146.3 22.6 43.8 30.3 98.7 6.1 141.6-16.8 30.1-46.5 50.3-73.2 72-40.4 32.9-89.5 73.1-116.3 117.7-26.5 44.2-50.3 90.9-63.2 141.1-9.6 37.3-9.5 83-39.5 111.1-19.3 18.2-41.6 15.8-65.5 6.6-61.4-23.6-53.7-96.6-56.9-149.4-5.5-89.1-22.3-179.6-67.4-256.6-15.8-27-35.6-52.4-58.6-74.2z"/>
				<path id="&lt;Path&gt;" class="s0" d="m2916.9 2482.5c22.9 19.1 39.7 48.5 58.9 71.1 25.1 29.4 52.2 57.4 82.9 81 44.6 34.3 96.2 59.2 137.8 97 41.6 37.7 73 94.5 59.3 149-5.6 22.2-18.2 42-30.8 61.2q-20.5 31.2-42 61.8c-14.5 20.7-32.2 43-57.3 46.1-14.5 1.8-29-3.4-41.5-10.8-33.2-19.9-54.2-54.6-73.2-88.3-40.6-72.3-79.8-148.5-144.5-200.3-54.2-43.5-121.3-65.5-187.4-83.6-25-6.9-63.4-9.1-82.5-28-19.3-19.1-29.7-54.9-13.7-78.5 10.1-14.9 27.8-22.3 44.6-28.6 34.2-13 69-22.7 101.9-38.4 55.4-26.3 124.7-55.3 181.1-15.6q3.2 2.3 6.4 4.9z"/>
				<path id="&lt;Path&gt;" class="s0" d="m2871.9 76.8c17.6 11.1 33.6 25 48.8 39.3 54 50.4 104 107.5 169.8 141 20.8 10.6 43.2 18.8 61.2 33.6 34.3 28 33.4 80.9 11 115.4-24.7 37.9-83.8 29.3-104.5-7-9.2-16.2-13-34.8-18.4-52.6-21.2-69.8-69.3-117.3-123.2-163.4-35.9-30.7-79.9-54-127.1-56.9-19.3-1.2-56-0.5-54.1-29.7 0.9-14.6 12.8-26.5 25.9-33.1 26.7-13.6 59.4-10.8 86.9 0.9 8.2 3.5 16.1 7.7 23.7 12.5z"/>
			</g>
		</g>
	</g>
</svg>